<svg width="40" height="40" viewBox="0 0 40 40" fill="none" xmlns="http://www.w3.org/2000/svg">
<path d="M20.0003 3.83331C23.1392 3.83339 25.7725 4.91115 27.931 7.06964C30.0893 9.22814 31.1664 11.8614 31.1664 15.0003C31.1663 17.202 30.7993 19.0169 30.0902 20.4661C29.353 21.9725 28.4544 23.4329 27.3939 24.847L27.39 24.8528C26.3451 26.2896 25.2428 27.792 24.0833 29.3597C22.887 30.9772 21.9113 32.9675 21.1478 35.3196C21.0494 35.5902 20.8961 35.7923 20.6878 35.9427C20.4782 36.0941 20.2535 36.1663 20.0003 36.1663C19.7471 36.1663 19.5225 36.094 19.3128 35.9427C19.1567 35.8299 19.0312 35.688 18.9369 35.5101L18.8519 35.3196C18.0889 32.9689 17.1225 30.9794 15.9437 29.3626C14.8002 27.7943 13.6883 26.291 12.6097 24.8528H12.6107C11.5806 23.4364 10.6882 21.9727 9.93295 20.4622C9.20891 19.014 8.83338 17.2007 8.83334 15.0003C8.83334 11.8613 9.91111 9.2282 12.0697 7.06964C14.2282 4.91108 16.8613 3.83331 20.0003 3.83331ZM20.0003 10.3333C18.7224 10.3333 17.6151 10.7957 16.7054 11.7054C15.7957 12.6151 15.3333 13.7224 15.3333 15.0003C15.3334 16.278 15.7959 17.3847 16.7054 18.2943C17.6151 19.2039 18.7224 19.6663 20.0003 19.6663C21.2781 19.6662 22.3847 19.2039 23.2943 18.2943C24.2039 17.3846 24.6663 16.2781 24.6664 15.0003C24.6664 13.7224 24.204 12.6151 23.2943 11.7054C22.3847 10.7959 21.278 10.3334 20.0003 10.3333Z" fill="#C62828" stroke="#ABB5BE"/>
<path d="M20 6.79999C20.7711 6.79999 21.5148 6.89843 22.2313 7.0953C22.9477 7.29218 23.6148 7.57655 24.2328 7.94843C24.8508 8.3203 25.4168 8.7578 25.9309 9.26093C26.4449 9.76405 26.8852 10.3301 27.2516 10.959C27.618 11.5879 27.8996 12.2578 28.0965 12.9687C28.2934 13.6797 28.3945 14.4234 28.4 15.2C28.4 15.9711 28.3016 16.7148 28.1047 17.4312C27.9078 18.1476 27.6234 18.8148 27.2516 19.4328C26.8797 20.0508 26.4422 20.6168 25.9391 21.1308C25.4359 21.6449 24.8699 22.0851 24.241 22.4515C23.6121 22.818 22.9422 23.0996 22.2313 23.2965C21.5203 23.4933 20.7766 23.5945 20 23.6C19.2289 23.6 18.4852 23.5015 17.7688 23.3047C17.0523 23.1078 16.3852 22.8234 15.7672 22.4515C15.1492 22.0797 14.5832 21.6422 14.0691 21.139C13.5551 20.6359 13.1148 20.0699 12.7484 19.441C12.382 18.8121 12.1004 18.1422 11.9035 17.4312C11.7066 16.7203 11.6055 15.9765 11.6 15.2C11.6 14.4289 11.6984 13.6851 11.8953 12.9687C12.0922 12.2523 12.3766 11.5851 12.7484 10.9672C13.1203 10.3492 13.5578 9.78319 14.0609 9.26913C14.5641 8.75507 15.1301 8.31483 15.759 7.94843C16.3879 7.58202 17.0578 7.30038 17.7688 7.1035C18.4797 6.90663 19.2234 6.80546 20 6.79999Z" fill="#EF5350"/>
<path fill-rule="evenodd" clip-rule="evenodd" d="M21.1302 19.04C21.1302 18.5098 20.7004 18.08 20.1702 18.08L20.16 18.08C19.6298 18.08 19.2 18.5098 19.2 19.04C19.2 19.5701 19.6298 20 20.16 20L20.1702 20C20.7004 20 21.1302 19.5701 21.1302 19.04Z" fill="white"/>
<path fill-rule="evenodd" clip-rule="evenodd" d="M20.1867 11.2565C19.7725 11.2565 19.4367 11.5923 19.4367 12.0065L19.4367 16.4324C19.4367 16.8466 19.7725 17.1824 20.1867 17.1824C20.601 17.1824 20.9367 16.8466 20.9367 16.4324L20.9367 12.0065C20.9367 11.5923 20.601 11.2565 20.1867 11.2565Z" fill="white"/>
</svg>
